<?xml version="1.0" encoding="utf-8"?>
<!-- Generator: Adobe Illustrator 20.0.0, SVG Export Plug-In . SVG Version: 6.00 Build 0)  -->
<svg version="1.1" id="Layer_1" xmlns="http://www.w3.org/2000/svg" xmlns:xlink="http://www.w3.org/1999/xlink" x="0px" y="0px"
	 viewBox="0 0 469.5 47.5" style="enable-background:new 0 0 469.5 47.5;" xml:space="preserve">
<style type="text/css">
	.st0{fill:#FFFFFF;}
</style>
<path class="st0" d="M191.6,34.6h8.7c0.1,1.7,0.7,3,1.9,3.9c1.3,0.8,3,1.3,5.1,1.3c1.5,0,2.9-0.3,4-0.9c1-0.6,1.5-1.4,1.5-2.4
	c0-1.5-1.8-2.7-5.4-3.5c-1.5-0.2-2.7-0.5-3.5-0.8c-4.5-1.1-7.6-2.4-9.1-4c-1.7-1.5-2.6-3.6-2.6-6.2c0-3.2,1.2-5.9,3.7-8.1
	c2.6-2,5.9-3,10-3c4.5,0,8,1,10.7,3c2.5,2.1,3.8,4.9,4,8.3h-5.5c-1.6,0-2.9-0.7-3.7-2.2c-0.3-0.3-0.7-0.7-1-1
	c-1-0.8-2.4-1.1-4.2-1.1c-1.7,0-3,0.2-3.9,0.8c-0.8,0.5-1.1,1.3-1.1,2.3c0,1.4,2.2,2.5,6.7,3.5c0.5,0.2,1,0.3,1.3,0.4
	c0.4,0.1,0.7,0.1,1.1,0.1c4.4,1.1,7.4,2.4,9.1,3.8c1.6,1.5,2.4,3.6,2.4,6.2c0,3.8-1.4,6.7-4.1,8.7c-2.6,1.9-6.4,2.8-11.5,2.8
	c-4.9,0-8.5-1-10.9-3c-2.5-2-3.7-4.8-3.7-8.6V34.6z M169.9,45.9V29.3c0-3.3,0.5-6.1,1.5-8.4c1-2.3,2.3-4.1,4-5.4
	c1.6-1.3,3.5-2.2,5.7-2.8c2.2-0.6,4.4-0.9,6.8-0.9c0.2,0,0.4,0,0.6,0c0.3,0,0.5,0,0.6,0v9.1h-3c-2.5,0-4.3,0.6-5.5,1.8
	c-1.2,1.2-1.8,3.1-1.8,5.7v17.6H169.9z M143.8,25.3h13.1c-0.2-2.3-0.8-4-1.8-5.1c-1.1-1.2-2.7-1.8-4.8-1.8c-1.9,0-3.4,0.6-4.6,1.8
	C144.5,21.4,143.8,23.1,143.8,25.3z M159.2,35.4h6.4c-0.9,3.6-2.7,6.3-5.4,8.2c-2.7,2-6,3-10,3c-4.9,0-8.7-1.6-11.4-4.7
	c-2.7-3.1-4.1-7.5-4.1-13.2c0-5.5,1.3-9.8,4-12.8c2.7-3.2,6.6-4.8,11.4-4.8c5.1,0,9.1,1.5,11.9,4.6c2.7,3.2,4.1,7.6,4.1,13.2
	c0,0.3,0,0.6,0,0.9c0,0.3,0,0.4,0,0.5c0,0.4,0,0.7-0.1,0.9h-22.2c0.1,2.7,0.7,4.6,1.9,5.9c1.1,1.4,2.8,2.1,5,2.1
	c1.4,0,2.7-0.3,3.7-0.9c0.3-0.1,0.5-0.2,0.7-0.4c0.2-0.2,0.4-0.4,0.7-0.7c0.1-0.3,0.4-0.6,1-1C157.3,35.6,158.1,35.4,159.2,35.4z
	 M119.4,45.9h-9.1L98.4,11.7h9.5l6.8,24l6-20.9c0.7-2.1,2.1-3.1,4.1-3.1h6.7L119.4,45.9z M75.9,45.9V29.3c0-3.3,0.5-6.1,1.5-8.4
	c1-2.3,2.3-4.1,4-5.4c1.6-1.3,3.5-2.2,5.7-2.8c2.2-0.6,4.4-0.9,6.8-0.9c0.2,0,0.4,0,0.6,0c0.3,0,0.5,0,0.6,0v9.1h-3
	c-2.5,0-4.3,0.6-5.5,1.8c-1.2,1.2-1.8,3.1-1.8,5.7v17.6H75.9z M49.8,25.3h13.1c-0.2-2.3-0.8-4-1.8-5.1c-1.1-1.2-2.7-1.8-4.8-1.8
	c-1.9,0-3.4,0.6-4.6,1.8C50.5,21.4,49.9,23.1,49.8,25.3z M65.2,35.4h6.4c-0.9,3.6-2.7,6.3-5.4,8.2c-2.7,2-6,3-10,3
	c-4.9,0-8.7-1.6-11.4-4.7c-2.7-3.1-4.1-7.5-4.1-13.2c0-5.5,1.3-9.8,4-12.8c2.7-3.2,6.5-4.8,11.4-4.8c5.1,0,9.1,1.5,11.9,4.6
	c2.7,3.2,4.1,7.6,4.1,13.2c0,0.3,0,0.6,0,0.9c0,0.3,0,0.4,0,0.5c0,0.4,0,0.7-0.1,0.9H49.8c0.1,2.7,0.7,4.6,1.9,5.9
	c1.1,1.4,2.8,2.1,5,2.1c1.4,0,2.7-0.3,3.7-0.9c0.3-0.1,0.5-0.2,0.7-0.4c0.2-0.2,0.5-0.4,0.7-0.7c0.1-0.3,0.4-0.6,1-1
	C63.4,35.6,64.2,35.4,65.2,35.4z M1.3,32.2h9c0.4,2.6,1.3,4.4,3,5.4c1.7,1.2,4.1,1.8,7.1,1.8c2.7,0,4.7-0.5,6-1.4
	c1.4-0.9,2.1-2.3,2.1-4.1c0-2.7-3.9-5-11.6-6.7L16.6,27c0,0-0.3-0.1-1-0.3c-4.4-0.9-7.3-1.9-8.7-2.9c-1.7-0.9-2.9-2.3-3.6-4.1
	C2.4,18.2,2,16.2,2,13.8c0-4.2,1.4-7.5,4.4-9.9c2.9-2.3,7.1-3.5,12.7-3.5c5.2,0,9.2,1.2,12.1,3.6c2.9,2.7,4.4,6.1,4.6,10.4h-5.1
	c-2,0-3.4-0.9-4.2-2.7c-0.4-0.9-1-1.6-1.8-2.2c-1.5-1.1-3.6-1.7-6.3-1.7c-2.6,0-4.4,0.5-5.5,1.4c-1.3,0.9-1.9,2.3-1.9,4
	c0,2.3,2.5,4,7.5,5.1c1.5,0.4,2.5,0.7,3.2,0.8c1.5,0.5,2.9,0.9,4,1.2c1.2,0.3,2.1,0.5,2.8,0.7c1.2,0.5,2.4,1,3.6,1.5
	c1.7,1,3,2.4,4,4c0.9,1.8,1.4,3.8,1.4,5.9c0,4.6-1.5,8.2-4.6,10.8c-3.1,2.4-7.4,3.6-13.1,3.6c-5.8,0-10.2-1.2-13.1-3.7
	C3.3,40.7,1.6,37,1.3,32.2z"/>
<path class="st0" d="M462.2,44.5c-1.8,0.9-3.7,1.5-5.7,1.7c-2,0.2-3.8,0.3-5.3,0.3c-3.1,0-5.8-0.8-8.1-2.5c-2.3-1.7-3.5-4.4-3.5-8.3
	c0-3.6,1-6.2,3.2-7.7c2.1-1.5,4.8-2.6,8-3.1c0.4,0,1-0.1,1.5-0.2c0.6-0.1,1.3-0.2,2.1-0.3c3.8-0.5,5.7-1.6,5.7-3.3
	c0-1.3-0.7-2.1-2-2.5c-1.3-0.4-2.5-0.6-3.7-0.6c-1.2,0-2.3,0.2-3.2,0.5c-0.9,0.3-1.6,1-2,1.9h-8.6c0.3-2.7,1.5-4.8,3.6-6.5
	c2.3-2,5.6-3,9.9-3c4.8,0,8.4,0.8,10.8,2.4c2.5,1.7,3.7,4.1,3.7,7.2v11.7c0,3.4-0.6,6.1-1.9,8C465.4,42.2,463.9,43.6,462.2,44.5
	 M460.2,28.7c-1.2,0.6-2.9,1.1-5,1.7c-2,0.4-3,0.6-3,0.6c-1.5,0.4-2.7,1-3.4,1.7c-0.6,0.9-0.9,1.9-0.9,2.8c0,1.3,0.4,2.3,1.2,3.1
	c0.8,0.7,1.9,1,3.3,1c2.4,0,4.3-0.7,5.6-2.1c1.4-1.4,2.1-3.3,2.1-5.6V28.7z M426.3,1.7h4.6c1.2,0,2.2,0.4,3.1,1.3
	c0.9,0.8,1.3,1.9,1.3,3.1v2.7h-9V1.7z M426.3,11.7h4.6c1.2,0,2.2,0.4,3.1,1.3c0.9,0.9,1.3,1.9,1.3,3.1v29.8h-9V11.7z M412.3,1.7h4.6
	c1.2,0,2.2,0.4,3.1,1.2c0.9,0.8,1.3,1.8,1.3,3v39.9h-9V1.7z M401.7,44.5c-1.8,0.9-3.7,1.5-5.7,1.7c-2,0.2-3.8,0.3-5.3,0.3
	c-3.1,0-5.8-0.8-8.1-2.5c-2.3-1.7-3.5-4.4-3.5-8.3c0-3.6,1-6.2,3.1-7.7c2.1-1.5,4.8-2.6,8-3.1c0.4,0,0.9-0.1,1.5-0.2
	c0.6-0.1,1.3-0.2,2-0.3c3.8-0.5,5.7-1.6,5.7-3.3c0-1.3-0.7-2.1-2-2.5c-1.3-0.4-2.5-0.6-3.7-0.6c-1.2,0-2.3,0.2-3.2,0.5
	c-0.9,0.3-1.6,1-2,1.9h-8.6c0.3-2.7,1.5-4.8,3.6-6.5c2.3-2,5.6-3,9.9-3c4.8,0,8.4,0.8,10.8,2.4c2.5,1.7,3.7,4.1,3.7,7.2v11.7
	c0,3.4-0.6,6.1-1.9,8C404.9,42.2,403.5,43.6,401.7,44.5z M399.7,28.7c-1.2,0.6-2.9,1.1-5,1.7c-2,0.4-3,0.6-3,0.6
	c-1.5,0.4-2.7,1-3.3,1.7c-0.6,0.9-0.9,1.9-0.9,2.8c0,1.3,0.4,2.3,1.2,3.1c0.8,0.7,1.9,1,3.3,1c2.4,0,4.3-0.7,5.6-2.1
	c1.4-1.4,2.1-3.3,2.1-5.6V28.7z M357.4,45.9V29.3c0-3.3,0.5-6.1,1.5-8.4c1-2.3,2.3-4.1,4-5.4c1.6-1.3,3.5-2.2,5.7-2.8
	c2.2-0.6,4.4-0.9,6.8-0.9c0.2,0,0.4,0,0.6,0c0.3,0,0.5,0,0.6,0v9.1h-3c-2.5,0-4.3,0.6-5.5,1.8c-1.2,1.2-1.8,3.1-1.8,5.7v17.6H357.4z
	 M354.3,45.9c-2.8,0.2-5.9,0.1-9.2-0.1c-3.3-0.3-4.9-2.4-4.9-6.3V1.7h4.6c1.1,0,2.1,0.4,3,1.3c0.9,0.8,1.3,1.9,1.3,3.1v5.8h5.3v1.8
	c0,1.3-0.4,2.3-1.3,3.2c-0.9,0.8-1.9,1.2-3.1,1.2H349v19c0,1.5,0.8,2.2,2.6,2.2h2.7V45.9z M305.1,34.6h8.7c0.1,1.7,0.7,3,1.9,3.9
	c1.3,0.8,3,1.3,5.1,1.3c1.5,0,2.9-0.3,4-0.9c1-0.6,1.5-1.4,1.5-2.4c0-1.5-1.8-2.7-5.4-3.5c-1.5-0.2-2.7-0.5-3.5-0.8
	c-4.5-1.1-7.6-2.4-9.1-4c-1.7-1.5-2.6-3.6-2.6-6.2c0-3.2,1.2-5.9,3.7-8.1c2.6-2,5.9-3,10-3c4.4,0,8,1,10.7,3c2.5,2.1,3.8,4.9,4,8.3
	h-5.5c-1.6,0-2.9-0.7-3.7-2.2c-0.3-0.3-0.7-0.7-1-1c-1-0.8-2.4-1.1-4.2-1.1c-1.7,0-3,0.2-3.8,0.8c-0.8,0.5-1.2,1.3-1.2,2.3
	c0,1.4,2.2,2.5,6.7,3.5c0.5,0.2,1,0.3,1.3,0.4c0.4,0.1,0.7,0.1,1.1,0.1c4.4,1.1,7.4,2.4,9.1,3.8c1.6,1.5,2.4,3.6,2.4,6.2
	c0,3.8-1.4,6.7-4.1,8.7c-2.6,1.9-6.4,2.8-11.6,2.8c-4.9,0-8.5-1-10.9-3c-2.5-2-3.7-4.8-3.7-8.6V34.6z M300.7,11.7v20
	c0,6.1-1.6,10.1-4.8,12c-3.2,1.9-6.6,2.8-10.4,2.8c-3.7-0.2-7-1.2-10.1-3.1c-3-1.9-4.6-5.8-4.6-11.7v-20h9v21.8
	c0,2.1,0.6,3.5,1.8,4.5c1.2,0.9,2.6,1.4,4.1,1.4c1.5,0,2.9-0.5,4.2-1.4c1.3-1,1.9-2.4,1.9-4.5V16.1c0-1.2,0.4-2.2,1.2-3.1
	c0.8-0.9,1.9-1.3,3.2-1.3H300.7z M246.7,10.6l-6.2,18.7h12.3L246.7,10.6z M244.7,1.7h7.2l16,44.2h-9.6l-3-9.1h-17.2l-2.8,9.1h-9.6
	l14.6-41.2C241.1,2.7,242.5,1.7,244.7,1.7z"/>
</svg>
